<?xml version="1.0" standalone="no"?>
<!DOCTYPE svg PUBLIC "-//W3C//DTD SVG 20010904//EN"
 "http://www.w3.org/TR/2001/REC-SVG-20010904/DTD/svg10.dtd">
<svg version="1.0" xmlns="http://www.w3.org/2000/svg"
 width="354.000000pt" height="354.000000pt" viewBox="0 0 354.000000 354.000000"
 preserveAspectRatio="xMidYMid meet">
<metadata>
Created by potrace 1.14, written by Peter Selinger 2001-2017
</metadata>
<g transform="translate(0.000000,354.000000) scale(0.100000,-0.100000)"
fill="#000000" stroke="none">
<path d="M363 3278 c-4 -7 -7 -24 -8 -37 0 -13 -6 -26 -12 -29 -15 -4 -17 10
-3 24 7 7 5 16 -4 29 -13 18 -14 17 -11 -8 2 -15 -1 -27 -6 -27 -6 0 -7 -4 -4
-10 3 -5 0 -10 -7 -10 -8 -1 -5 -7 7 -17 17 -13 17 -15 2 -10 -14 5 -19 0 -24
-23 -3 -18 -12 -30 -22 -31 -11 0 -12 -2 -3 -6 10 -4 9 -9 -5 -20 -10 -8 -12
-12 -5 -8 11 5 15 -13 14 -65 0 -3 -3 -16 -7 -29 -5 -16 -4 -21 4 -17 6 4 11
2 11 -3 0 -6 -7 -11 -15 -11 -8 0 -15 -5 -15 -11 0 -5 4 -8 9 -4 17 10 21 -13
5 -29 -9 -9 -11 -16 -4 -16 6 0 1 -15 -11 -32 -13 -18 -17 -28 -9 -21 12 9 19
8 34 -3 17 -12 17 -14 3 -14 -11 0 -15 -7 -12 -20 2 -11 0 -18 -5 -15 -5 3 -7
14 -5 26 2 11 -1 19 -8 18 -25 -3 -37 1 -35 12 2 6 -4 13 -13 14 -16 3 -16 1
-1 -25 9 -16 21 -26 26 -23 5 3 6 1 2 -5 -3 -5 0 -13 6 -16 9 -4 8 -5 -2 -5
-8 1 -22 1 -30 0 -13 -1 -13 -3 -1 -10 8 -5 11 -16 8 -26 -4 -9 -12 -13 -18
-9 -8 4 -9 3 -5 -5 4 -6 12 -8 18 -5 6 4 8 -1 3 -15 -5 -17 -2 -21 17 -21 17
0 19 -3 9 -9 -11 -7 -10 -11 5 -20 18 -10 18 -10 -1 -11 -11 0 -26 9 -33 21
-7 12 -16 18 -19 15 -4 -3 -11 -1 -18 4 -8 7 -12 5 -12 -5 0 -8 4 -12 8 -9 4
2 10 0 14 -6 4 -6 10 -8 14 -6 4 3 8 -1 8 -8 0 -8 -7 -12 -16 -9 -12 3 -12 2
2 -7 9 -6 21 -9 25 -6 5 3 8 -8 7 -24 -1 -16 1 -27 5 -25 4 3 16 -5 26 -16 10
-11 23 -18 30 -15 8 3 11 -1 7 -10 -4 -10 0 -12 11 -8 9 3 16 1 16 -5 0 -6 7
-11 15 -11 8 0 15 -7 15 -15 0 -8 5 -15 11 -15 5 0 8 4 5 8 -3 5 1 9 9 9 11 0
12 -5 3 -21 -10 -19 -10 -20 5 -7 12 9 17 10 17 2 0 -7 5 -9 10 -6 6 3 10 1
10 -5 0 -6 5 -8 13 -4 9 6 9 4 -1 -8 -10 -13 -10 -18 -1 -24 7 -4 9 -3 6 3 -3
5 0 10 8 10 8 0 12 -4 9 -9 -5 -8 9 -12 36 -9 13 2 13 1 0 -8 -10 -7 -11 -11
-2 -11 6 0 12 -5 12 -11 0 -8 -4 -8 -12 -1 -7 5 -22 12 -33 14 -11 1 -22 5
-25 8 -12 13 -62 41 -56 32 3 -5 0 -12 -8 -15 -9 -4 -12 2 -10 18 2 24 -1 24
-43 8 -28 -10 -43 -12 -39 -5 5 9 -15 26 -34 30 -7 2 -23 13 -33 25 -15 17
-18 18 -14 5 19 -50 20 -54 5 -37 -12 15 -15 15 -28 1 -13 -14 -12 -15 3 -9 9
3 19 2 23 -4 3 -6 12 -8 19 -5 7 2 15 -1 18 -7 3 -7 -5 -12 -18 -12 -13 0 -21
3 -18 8 2 4 -1 7 -6 7 -6 0 -11 -5 -11 -10 0 -13 41 -30 54 -23 4 3 1 -6 -8
-19 -17 -27 -11 -44 10 -27 8 7 19 7 30 1 15 -8 15 -9 0 -15 -12 -5 -15 -3
-10 6 4 6 3 8 -1 4 -15 -13 -14 -36 1 -30 9 3 14 0 12 -7 -2 -7 4 -15 12 -17
9 -3 11 -1 5 4 -5 4 -11 14 -13 22 -2 11 0 12 11 3 8 -7 18 -8 22 -4 5 4 5 2
2 -5 -4 -6 -1 -14 5 -16 10 -4 10 -6 1 -6 -7 -1 -13 -6 -13 -11 0 -7 6 -7 18
-2 20 11 45 5 36 -9 -4 -8 17 -14 39 -10 9 1 9 -11 -2 -27 -13 -21 -44 -10
-46 15 -2 28 -11 38 -20 24 -3 -6 -1 -11 4 -11 6 0 11 -5 11 -11 0 -5 -5 -7
-12 -3 -8 5 -9 2 -5 -10 5 -12 3 -16 -5 -13 -7 2 -12 9 -11 15 1 5 -8 18 -20
28 l-22 19 19 -22 c21 -25 11 -30 -16 -9 -10 7 -15 16 -11 19 3 4 1 7 -5 7
-22 0 -12 -19 18 -37 16 -9 30 -21 30 -26 0 -5 9 -7 20 -4 13 3 20 0 20 -10 0
-10 -6 -13 -16 -9 -9 3 -12 2 -9 -5 4 -5 12 -8 18 -6 15 6 47 -11 47 -24 0 -6
-5 -7 -12 -3 -7 5 -8 3 -3 -5 5 -9 11 -9 17 -3 14 14 38 4 38 -17 0 -12 2 -13
9 -3 7 11 9 10 15 -3 3 -9 10 -14 15 -10 5 3 12 1 16 -5 3 -5 15 -10 26 -10
10 0 19 -5 19 -11 0 -5 5 -7 10 -4 6 4 18 1 26 -6 9 -7 23 -14 32 -15 8 -2 19
-8 23 -16 9 -15 51 -17 61 -3 4 6 8 2 8 -7 0 -21 11 -23 29 -5 11 9 13 9 7 0
-5 -10 5 -13 38 -13 26 0 46 -5 49 -12 4 -9 8 -9 14 -3 7 9 16 10 61 6 6 -1
12 -5 12 -10 0 -5 -11 -8 -25 -7 -13 2 -22 -1 -19 -5 3 -5 -2 -10 -10 -10 -9
-1 -22 -2 -28 -3 -7 -1 -19 2 -26 8 -9 7 -16 6 -21 -2 -5 -8 -23 -10 -52 -7
-24 3 -53 7 -64 8 -11 1 -23 7 -27 12 -5 6 -8 5 -8 -3 0 -10 -4 -9 -16 2 -8 9
-20 14 -25 11 -5 -4 -9 0 -9 7 0 9 -3 9 -10 -2 -6 -10 -10 -11 -10 -2 0 6 -7
12 -16 12 -8 0 -13 4 -10 8 3 5 -1 9 -8 9 -8 0 -12 -7 -8 -15 4 -11 -2 -10
-24 4 -35 22 -45 35 -37 48 3 5 1 6 -5 2 -6 -4 -9 -13 -5 -21 3 -11 -2 -15
-18 -15 -12 0 -19 -3 -15 -7 10 -11 30 -11 37 0 3 4 11 1 18 -7 9 -11 9 -16 0
-22 -8 -4 -9 -3 -5 4 4 7 2 12 -3 12 -6 0 -11 -6 -11 -12 0 -10 -3 -9 -9 1 -6
9 -11 10 -15 2 -4 -6 -14 -11 -22 -11 -9 0 -12 5 -8 12 4 7 3 8 -4 4 -24 -15
-13 -34 17 -30 18 3 35 -1 45 -11 9 -9 16 -12 16 -6 0 6 9 11 21 11 11 0 17
-4 14 -10 -3 -5 1 -10 10 -10 10 0 13 5 9 13 -4 6 1 5 12 -4 10 -9 25 -14 32
-12 20 8 14 -4 -12 -21 -18 -11 -27 -13 -32 -4 -5 7 -2 8 7 3 8 -5 10 -4 6 0
-10 11 -37 15 -37 6 0 -4 6 -13 13 -21 10 -12 9 -12 -3 -3 -16 12 -52 3 -50
-12 1 -5 -4 -11 -12 -13 -9 -2 -8 0 2 7 11 8 11 11 2 11 -7 0 -15 -6 -18 -13
-5 -15 -31 -16 -52 -3 -7 4 -11 4 -10 -1 1 -4 -3 -19 -10 -33 -12 -22 -12 -23
1 -7 10 12 17 15 22 7 4 -6 -1 -17 -11 -25 -23 -16 -48 0 -39 24 5 13 4 13 -6
4 -10 -10 -9 -17 5 -32 17 -19 17 -20 -4 -31 -12 -6 -29 -9 -38 -5 -13 5 -14
4 -5 -6 10 -10 18 -10 37 -1 23 10 62 9 73 -2 3 -2 20 2 39 10 19 8 40 12 46
8 7 -5 8 -3 3 5 -9 16 93 13 114 -3 11 -8 13 -8 7 2 -5 8 -1 11 13 9 11 -2 23
-6 27 -9 3 -4 17 -3 30 2 17 7 27 5 38 -5 16 -17 30 -20 21 -6 -3 6 4 8 17 5
13 -3 34 -8 48 -10 14 -3 34 -7 46 -9 11 -3 21 -10 22 -17 0 -7 3 -23 6 -36 3
-13 1 -20 -5 -17 -5 4 -7 10 -4 15 3 4 -7 16 -21 25 -15 9 -23 12 -20 6 4 -6
2 -11 -4 -11 -6 0 -8 -5 -4 -12 5 -9 2 -9 -9 1 -9 7 -17 10 -17 6 0 -4 -11 0
-25 9 -23 15 -25 15 -25 1 0 -15 -1 -15 -16 -1 -19 19 -28 21 -21 3 4 -10 -4
-13 -27 -12 -38 3 -50 -3 -37 -19 7 -8 4 -11 -13 -11 -12 1 -28 5 -35 9 -8 5
-7 -1 4 -17 15 -24 15 -26 -1 -35 -16 -9 -14 -10 8 -9 14 1 24 5 21 10 -2 4 1
7 6 7 6 0 11 -9 11 -20 0 -11 4 -20 9 -20 5 0 7 10 4 23 -4 18 -3 19 6 7 6 -8
11 -11 11 -6 0 5 7 3 15 -4 12 -10 15 -9 15 4 0 10 4 15 10 11 5 -3 7 -12 3
-20 -3 -8 0 -15 7 -15 6 0 9 4 6 8 -2 4 0 14 5 22 8 12 9 11 7 -4 -2 -10 3
-21 11 -24 8 -3 11 0 7 7 -4 6 -2 11 4 11 20 0 4 -24 -21 -32 l-24 -7 25 1
c14 0 34 -1 45 -2 l20 -1 -20 -9 c-14 -6 -15 -9 -5 -9 9 -1 22 5 29 12 11 10
13 10 7 0 -5 -9 0 -13 13 -13 11 0 28 -11 37 -26 9 -14 23 -23 30 -20 8 3 11
-2 9 -15 -2 -10 0 -19 6 -19 5 0 9 6 9 14 0 8 5 18 12 22 6 4 8 3 4 -4 -3 -6
-2 -13 4 -17 6 -4 7 -11 4 -17 -4 -6 2 -8 17 -4 l24 6 -22 -11 c-26 -13 -32
-34 -7 -25 9 3 12 2 9 -4 -4 -7 3 -9 19 -6 15 3 24 1 22 -3 -10 -16 14 -34 43
-33 17 0 33 -4 36 -9 4 -5 17 -9 31 -9 13 0 24 -5 24 -11 0 -5 -5 -7 -12 -3
-7 4 -8 3 -4 -5 6 -9 11 -9 22 0 11 9 14 9 14 0 0 -7 5 -9 12 -5 6 4 8 3 5 -3
-4 -6 -20 -13 -36 -15 -17 -2 -28 -2 -26 2 2 4 -10 4 -27 2 -24 -4 -29 -2 -23
9 5 8 5 11 0 7 -4 -4 -15 -2 -23 5 -13 10 -14 9 -4 -10 14 -26 16 -45 3 -24
-8 13 -12 13 -28 1 -10 -8 -15 -10 -11 -6 9 11 -10 36 -26 36 -6 0 -4 -5 4
-10 13 -8 12 -10 -2 -10 -10 0 -18 4 -18 8 0 4 -16 9 -35 10 -19 2 -35 -2 -35
-7 0 -5 6 -9 13 -8 34 1 49 -4 44 -16 -3 -8 3 -14 14 -14 13 -1 17 3 12 10 -3
7 3 3 15 -7 26 -23 30 -34 5 -15 -17 13 -17 12 -4 -4 15 -18 15 -18 29 0 13
16 14 16 9 1 -4 -10 -3 -18 1 -19 4 -1 18 -3 32 -4 48 -7 59 -11 77 -31 10
-11 14 -14 10 -8 -6 9 -2 12 11 11 13 -1 18 -6 14 -17 -5 -13 -4 -13 13 0 10
8 16 10 12 4 -4 -7 0 -15 9 -18 9 -4 13 -2 8 5 -4 7 3 6 17 -2 23 -12 23 -12
4 -19 -11 -4 -23 -6 -27 -4 -4 3 -9 1 -12 -4 -2 -4 12 -7 32 -7 20 1 37 7 37
13 0 12 10 16 23 9 4 -2 0 -2 -8 0 -9 3 -5 -5 9 -18 24 -22 97 -37 85 -17 -4
6 5 2 20 -7 14 -10 26 -19 26 -21 0 -7 -25 1 -33 11 -5 6 -7 4 -4 -5 2 -8 13
-16 25 -16 36 -2 38 -4 22 -15 -13 -9 -13 -10 0 -6 8 2 14 10 12 16 -1 6 2 11
8 11 5 0 10 -7 10 -15 0 -8 5 -15 11 -15 5 0 7 6 3 13 -4 6 1 5 11 -5 20 -18
13 -35 -19 -49 -19 -9 -19 -9 4 -4 14 4 30 7 37 7 14 1 13 24 -2 48 -7 12 -6
13 7 3 8 -7 18 -10 21 -6 11 10 8 -16 -3 -37 -5 -10 -23 -21 -40 -25 -16 -4
-28 -11 -27 -17 1 -6 -4 -13 -12 -16 -9 -3 -11 0 -6 8 5 9 4 11 -4 6 -6 -4 -9
-11 -6 -16 3 -4 0 -10 -7 -12 -7 -3 -5 -7 6 -11 11 -5 15 -3 10 5 -5 8 -2 9
10 5 9 -4 15 -3 12 2 -10 16 21 32 50 25 21 -5 25 -4 19 6 -5 9 -4 11 4 6 9
-6 9 -11 0 -22 -6 -7 -16 -11 -22 -7 -6 3 -7 1 -3 -5 5 -9 13 -9 26 -2 27 15
63 13 54 -3 -4 -6 3 -3 16 8 13 11 20 14 16 8 -9 -17 6 -17 23 0 10 10 11 8 5
-7 -6 -17 -4 -18 19 -12 17 4 27 2 27 -4 0 -7 8 -9 20 -5 11 3 20 2 20 -3 0
-19 -14 -21 -37 -7 -13 9 -23 11 -23 6 0 -5 9 -13 20 -16 11 -4 18 -10 16 -14
-9 -13 74 -5 87 9 10 10 9 11 -2 5 -10 -6 -12 -4 -7 4 4 6 16 9 26 6 11 -3 22
0 27 8 13 23 50 30 57 11 5 -13 3 -14 -7 -6 -9 8 -17 8 -27 0 -12 -8 -12 -9 2
-4 10 3 20 1 23 -4 11 -18 27 -10 22 11 -4 15 -2 18 7 10 7 -6 17 -6 26 -1 11
7 12 10 2 10 -7 0 -10 5 -6 11 4 8 9 7 15 -2 4 -8 3 -19 -3 -26 -8 -10 -7 -12
4 -8 21 8 16 -34 -6 -51 -17 -12 -17 -13 2 -11 11 0 18 5 16 9 -3 4 7 10 22
14 18 5 22 9 13 15 -7 4 -17 5 -23 2 -5 -3 -6 -1 -2 5 5 9 13 9 26 2 23 -12
33 -13 26 -2 -3 5 1 9 9 9 11 0 11 -4 1 -21 -7 -12 -12 -36 -11 -53 1 -18 -2
-33 -7 -33 -5 0 -6 11 -4 23 3 15 -1 24 -9 24 -13 0 -13 -26 0 -47 11 -19 -6
-32 -23 -18 -12 9 -11 6 2 -10 19 -22 32 -30 22 -13 -7 11 18 33 27 25 4 -4 4
3 2 16 -3 17 -1 20 12 16 14 -6 14 -4 2 11 -12 15 -12 16 2 11 12 -5 16 -1 15
14 -1 13 6 22 17 24 9 1 15 -2 11 -7 -3 -5 -10 -7 -15 -4 -5 3 -6 -1 -2 -10 5
-13 7 -14 14 -3 7 11 11 10 19 -2 7 -11 8 -4 6 22 -3 34 -2 37 15 28 15 -9 17
-7 14 11 -3 17 -1 19 10 9 10 -8 15 -8 21 1 4 7 3 9 -3 6 -5 -3 -10 0 -10 7 0
9 7 12 15 8 11 -4 14 -1 9 12 -4 10 -3 15 4 11 5 -4 7 -15 4 -26 -4 -10 -2
-19 2 -19 15 0 33 23 32 39 0 11 -3 10 -9 -4 -6 -14 -9 -16 -9 -4 -1 8 6 24
14 35 15 18 15 18 8 0 -5 -15 -3 -17 8 -10 8 4 23 7 34 5 20 -3 20 -2 1 12
-15 11 -16 16 -6 22 8 5 11 4 7 -2 -4 -6 0 -14 9 -17 13 -5 15 -2 11 15 -5 17
-3 19 6 10 9 -9 9 -16 -1 -31 -15 -25 -15 -33 0 -24 7 4 2 -7 -11 -24 -12 -18
-20 -36 -17 -41 4 -5 0 -12 -6 -14 -9 -4 -7 -6 3 -6 9 -1 23 7 30 16 8 10 9
14 2 10 -6 -4 -15 -2 -19 4 -4 7 -3 10 2 6 11 -7 37 11 52 38 11 18 12 18 6
-7 -4 -21 -1 -29 17 -38 19 -11 21 -10 15 5 -5 15 -4 16 9 5 12 -10 18 -10 30
0 17 14 21 45 5 35 -6 -4 -7 -11 -4 -17 5 -7 2 -8 -6 -3 -9 5 -11 4 -6 -3 4
-7 2 -12 -3 -12 -6 0 -11 4 -11 8 0 14 36 43 43 35 4 -3 7 0 7 9 0 8 11 20 24
26 13 6 27 20 31 31 3 12 13 21 21 21 8 0 13 4 10 9 -8 13 21 34 39 28 8 -4
17 -1 21 5 5 7 2 8 -6 3 -8 -5 -11 -3 -8 6 3 8 11 13 17 11 6 -1 11 4 11 12 0
8 9 18 20 21 11 4 18 11 15 16 -4 5 -2 9 3 9 5 0 22 12 37 28 25 25 79 39 72
19 -1 -5 -6 -8 -11 -7 -5 1 -16 -9 -25 -23 -11 -17 -23 -23 -41 -21 -23 3 -24
3 -5 -8 19 -11 19 -11 0 -18 -11 -4 -20 -11 -20 -16 0 -5 -10 -22 -22 -38 -13
-16 -23 -25 -23 -21 0 5 8 18 18 29 17 21 17 21 -6 2 -12 -11 -22 -25 -22 -33
0 -8 -4 -11 -10 -8 -5 3 -10 -3 -10 -14 0 -11 -7 -26 -15 -34 -8 -8 -11 -18
-7 -23 4 -5 -1 -3 -10 4 -14 11 -16 10 -11 -6 2 -11 -1 -23 -8 -27 -7 -5 -10
-4 -6 1 3 6 1 16 -4 24 -9 13 -10 13 -6 0 2 -8 -3 -21 -12 -28 -15 -11 -14
-12 0 -6 27 9 32 -13 7 -30 -20 -14 -18 -21 5 -17 5 1 5 -3 2 -9 -4 -6 -13 -9
-19 -7 -7 3 -13 -1 -13 -9 0 -8 3 -14 7 -14 3 0 6 -8 6 -19 0 -13 -6 -17 -21
-14 -16 4 -17 3 -5 -6 13 -10 13 -11 0 -11 -9 -1 -5 -6 10 -15 35 -20 39 -19
35 10 -3 33 8 39 28 17 12 -13 13 -21 6 -32 -9 -13 -10 -12 -5 2 3 10 1 20 -4
23 -6 4 -10 1 -10 -4 0 -17 -2 -24 -11 -48 -6 -16 -5 -22 3 -20 6 1 15 -9 19
-23 l9 -25 -4 25 c-2 14 -7 33 -11 43 -4 10 -4 17 1 16 21 -4 35 2 29 11 -3 6
-1 10 6 10 8 0 8 4 -1 15 -10 13 -9 19 6 36 l19 21 7 -24 c6 -21 6 -20 7 7 0
17 1 39 3 50 2 12 -2 19 -10 17 -8 -1 -11 2 -7 8 4 7 12 7 26 0 15 -9 17 -15
9 -30 -5 -10 -6 -21 -2 -24 9 -5 12 8 13 57 1 25 10 32 34 27 6 -1 7 2 3 5 -4
4 -3 17 3 28 7 13 7 17 1 13 -6 -3 -13 -3 -16 2 -2 4 4 9 15 9 21 2 24 -13 9
-51 -5 -14 -6 -26 -1 -26 5 0 11 14 15 31 3 17 10 28 15 25 5 -3 7 3 4 14 -3
11 -10 20 -16 20 -6 0 -7 3 -4 6 4 4 14 1 23 -7 16 -13 16 -12 5 9 -10 18 -9
22 4 22 9 0 13 -4 10 -10 -3 -5 -4 -10 -1 -10 3 0 10 10 17 21 8 16 8 20 -1
14 -9 -6 -9 -3 -1 12 6 11 7 24 3 28 -4 5 -2 5 5 2 6 -4 14 -1 17 5 4 7 4 3 2
-10 -7 -35 9 -17 24 27 12 38 21 46 44 42 5 -1 6 5 3 13 -7 18 40 52 67 47 10
-1 15 2 12 7 -3 6 2 9 11 8 10 -2 29 1 43 5 22 8 23 8 8 -5 -30 -23 -20 -29
12 -6 17 12 30 18 30 13 0 -4 5 -1 10 7 9 13 10 13 10 0 0 -13 1 -13 10 0 5 8
10 10 10 4 0 -6 7 -11 15 -11 8 0 12 4 9 9 -3 4 1 8 10 8 8 0 22 3 32 7 13 5
15 3 9 -7 -6 -10 -4 -11 6 -4 8 5 17 9 22 10 4 1 8 2 10 4 1 1 9 3 17 5 193
49 273 92 304 167 21 48 1 57 -41 18 -17 -16 -34 -26 -37 -23 -3 4 -6 1 -6 -5
0 -7 -6 -12 -13 -12 -7 0 -18 -5 -25 -12 -12 -12 -19 -14 -74 -25 -16 -3 -28
-9 -28 -12 0 -8 -2 -9 -70 -15 -25 -2 -45 -5 -45 -6 0 -1 -13 -4 -28 -6 -21
-2 -30 2 -37 19 -6 16 -9 17 -9 5 -1 -12 -7 -15 -23 -10 -12 3 -17 7 -10 10 6
2 12 10 12 18 0 9 5 12 12 8 7 -4 8 -3 4 4 -4 6 -13 9 -21 6 -8 -4 -20 6 -29
24 -12 23 -13 32 -3 35 9 3 9 8 -2 18 -12 12 -13 12 -6 -1 4 -8 -1 -6 -12 5
-11 11 -16 23 -11 26 11 7 -41 31 -53 24 -5 -3 -6 2 -3 12 5 15 4 16 -5 3 -9
-13 -11 -13 -11 3 0 9 5 17 12 17 6 0 9 3 5 6 -7 7 -39 -10 -39 -21 0 -5 8
-12 17 -17 12 -7 13 -13 5 -23 -8 -10 -8 -15 0 -20 6 -4 14 -4 17 -1 4 3 0 6
-8 6 -10 1 -8 4 4 11 10 6 21 8 24 5 4 -3 2 -6 -3 -6 -6 0 -9 -15 -8 -32 2
-44 3 -45 15 -28 8 12 9 10 4 -9 -4 -13 -8 -30 -9 -39 -2 -8 -11 -16 -20 -18
-17 -2 -17 -1 -1 16 17 19 13 41 -8 39 -9 0 -9 -2 1 -6 6 -2 12 -9 12 -14 0
-6 -5 -7 -12 -3 -6 4 -8 3 -4 -4 3 -6 2 -14 -4 -17 -8 -5 -7 -11 1 -21 7 -9 8
-14 2 -12 -6 2 -22 -9 -35 -23 -19 -20 -29 -24 -41 -17 -13 7 -15 5 -10 -8 4
-12 3 -15 -5 -10 -7 4 -12 2 -12 -5 0 -8 -13 -10 -40 -6 -22 3 -38 1 -34 -4 3
-5 -2 -6 -11 -2 -13 5 -14 7 -3 14 8 5 9 9 2 9 -7 0 -11 15 -11 34 1 26 5 32
17 28 12 -4 12 -2 -2 14 -11 13 -14 24 -8 34 5 9 5 20 -2 30 -6 8 1 2 16 -13
30 -32 35 -24 7 12 -10 14 -16 31 -13 40 4 10 1 12 -8 6 -9 -5 -11 -4 -6 4 6
9 11 9 22 0 21 -17 15 11 -6 29 -13 12 -13 13 4 8 16 -6 17 -4 6 9 -7 8 -17
12 -23 8 -6 -3 -7 -1 -3 6 4 6 12 9 17 6 5 -4 9 -2 9 4 0 5 -8 15 -17 20 -17
10 -17 10 -1 11 12 0 15 5 11 16 -3 9 0 20 7 24 9 6 7 10 -9 15 -24 7 -29 52
-8 75 10 12 9 12 -4 2 -9 -6 -19 -9 -22 -6 -4 4 -4 -3 -2 -15 2 -13 0 -19 -6
-15 -6 3 -8 8 -5 11 3 3 -5 14 -17 25 -12 11 -16 17 -9 13 18 -9 15 6 -5 21
-17 13 -17 14 2 9 l20 -6 -20 11 c-22 12 -47 58 -39 71 3 5 3 9 0 9 -3 0 -10
-9 -16 -20 -8 -15 -8 -20 1 -18 6 2 14 -3 16 -10 3 -8 -1 -10 -13 -5 -16 6
-17 5 -4 -9 8 -9 19 -13 24 -10 5 3 6 0 2 -6 -3 -6 -2 -13 4 -17 5 -3 10 -12
10 -18 0 -8 -3 -8 -8 -2 -4 6 -18 19 -32 30 l-24 20 17 -27 c22 -35 22 -50 0
-18 -10 13 -18 40 -18 60 -1 22 -6 34 -13 32 -7 -1 -12 9 -12 22 0 14 -4 28
-10 31 -5 3 -10 11 -10 17 0 6 7 5 18 -3 15 -12 16 -12 5 2 -7 9 -10 19 -6 22
3 4 2 7 -4 7 -16 0 -25 -31 -14 -44 7 -8 4 -12 -8 -12 -15 0 -17 5 -11 26 4
14 5 31 2 39 -2 8 0 11 5 8 5 -3 15 -2 22 2 9 6 10 11 2 15 -6 4 -11 3 -11 -3
0 -10 -29 -8 -53 4 -6 4 -4 0 5 -8 18 -14 26 -33 10 -23 -4 2 -7 -12 -7 -32 0
-28 -4 -36 -15 -34 -8 2 -11 0 -7 -5 5 -4 13 -8 18 -8 5 0 9 -4 8 -10 0 -5 -8
-9 -17 -7 -13 2 -13 0 3 -10 19 -12 19 -12 -5 -19 -24 -7 -25 -7 -2 -8 13 -1
21 -5 17 -11 -3 -6 -15 -5 -31 2 -17 8 -21 14 -12 19 9 6 8 12 -3 25 -12 16
-12 17 1 9 13 -8 13 -7 1 8 -9 11 -10 17 -2 17 6 0 11 5 11 11 0 5 -6 7 -12 3
-10 -6 -10 -5 -1 7 16 20 17 31 1 40 -10 7 -10 9 2 9 13 0 13 1 0 10 -12 8
-13 11 -1 19 11 7 11 9 0 14 -12 4 -11 7 1 16 12 8 12 11 1 11 -11 0 -11 3 0
17 8 9 9 14 3 10 -17 -10 -24 17 -14 53 6 20 5 28 -2 24 -6 -4 -8 1 -3 15 4
13 2 21 -5 21 -6 0 -8 -4 -5 -10 3 -5 -2 -10 -12 -10 -17 -1 -17 -1 0 -11 22
-13 22 -30 0 -23 -12 4 -14 3 -6 -3 7 -5 12 -17 11 -28 0 -11 3 -29 7 -40 4
-11 3 -15 -2 -9 -4 6 -16 10 -26 8 -9 -1 -15 2 -11 7 3 5 10 6 16 3 7 -5 8 -2
4 5 -5 7 -14 10 -20 8 -7 -3 -19 -1 -27 4 -9 6 -10 9 -2 9 7 0 10 7 7 15 -5
11 -2 14 12 9 20 -8 19 -6 -10 16 -13 10 -17 10 -12 3 4 -7 2 -13 -3 -13 -6 0
-11 9 -11 21 0 12 -4 17 -11 13 -7 -4 -7 1 1 16 8 15 8 20 1 16 -10 -7 -16 7
-12 28 1 5 -4 4 -13 -3 -11 -9 -16 -9 -22 0 -4 7 -3 9 3 6 6 -4 13 0 17 8 3 8
1 15 -5 15 -6 0 -8 8 -5 18 6 15 5 15 -8 -1 -8 -10 -13 -26 -11 -35 1 -9 -3
-21 -9 -25 -7 -6 -4 -7 7 -3 11 3 17 1 16 -7 -3 -24 1 -38 10 -32 6 3 8 -6 5
-20 -2 -14 -1 -25 3 -25 5 0 9 -23 9 -51 1 -30 -2 -46 -7 -38 -4 7 -5 17 -2
23 4 5 1 6 -7 1 -9 -5 -10 -1 -6 16 5 17 0 13 -14 -11 -11 -19 -18 -25 -15
-14 4 14 0 24 -10 28 -9 3 -14 10 -11 15 8 13 -4 42 -15 35 -5 -3 -9 2 -9 11
0 10 5 13 12 9 7 -4 8 -3 4 5 -4 6 -12 8 -18 5 -8 -5 -9 -1 -5 12 7 18 6 18
-9 -1 -16 -20 -16 -20 -9 3 4 13 2 22 -4 22 -6 0 -11 7 -11 15 0 8 -6 15 -12
15 -9 0 -8 4 2 10 8 5 10 10 4 10 -18 0 -24 -12 -13 -26 7 -8 7 -14 -1 -19 -5
-3 -10 -1 -10 4 0 6 -7 11 -15 11 -14 0 -20 12 -16 33 1 5 -3 6 -9 2 -15 -9
-13 -13 18 -42 24 -23 25 -25 5 -19 -12 4 -24 2 -28 -4 -3 -6 -12 -7 -18 -4
-8 5 -8 3 1 -7 20 -21 15 -48 -8 -44 -11 2 -22 -1 -26 -6 -3 -5 0 -8 7 -7 6 2
14 -3 17 -11 3 -9 0 -12 -10 -9 -8 4 -15 0 -15 -7 0 -8 7 -11 15 -7 11 4 14 1
9 -11 -4 -11 -1 -17 7 -17 8 0 17 -7 20 -16 3 -9 11 -12 18 -8 10 6 10 5 1 -7
-12 -15 -13 -18 -13 -46 0 -13 -4 -11 -13 7 -11 21 -11 26 1 30 11 5 10 9 -4
20 -11 10 -15 10 -10 2 4 -7 1 -15 -8 -18 -9 -3 -16 -10 -16 -16 0 -5 4 -7 9
-4 15 10 19 -32 5 -53 -12 -17 -12 -21 1 -28 9 -5 18 -22 21 -37 3 -21 1 -26
-8 -20 -7 4 -5 -1 4 -12 14 -16 15 -23 5 -33 -9 -10 -8 -11 8 -5 15 5 17 4 9
-5 -15 -16 -48 -3 -34 14 7 8 6 12 -3 12 -7 0 -13 -14 -14 -30 0 -20 2 -25 8
-16 7 11 9 12 9 1 0 -8 -9 -16 -20 -19 -11 -3 -17 -9 -15 -14 3 -4 13 -6 23
-3 13 4 12 3 -2 -7 -15 -9 -21 -9 -24 -1 -2 7 -8 9 -14 6 -6 -4 -6 2 1 14 15
27 14 30 -6 35 -16 4 -15 5 1 6 20 1 20 1 0 16 -19 14 -19 14 1 15 17 0 17 2
5 10 -8 5 -16 14 -16 20 -1 5 -3 11 -4 13 -1 1 -3 19 -4 40 -1 20 -8 43 -14
49 -15 15 -15 28 -1 28 5 0 7 -5 3 -12 -4 -7 -3 -8 5 -4 8 6 9 12 2 20 -6 7
-7 17 -3 21 4 5 1 5 -5 1 -9 -5 -13 1 -13 19 0 15 -4 24 -10 20 -5 -3 -10 -1
-10 4 0 6 4 11 9 11 16 0 5 33 -12 36 -10 1 -14 -2 -10 -9 3 -6 7 -26 8 -44 1
-25 -3 -32 -12 -28 -8 2 -11 0 -8 -5 3 -6 13 -10 21 -10 8 0 12 -5 9 -11 -4
-6 -13 -8 -19 -6 -13 5 -15 -27 -4 -39 4 -3 2 -19 -4 -36 -8 -22 -13 -26 -19
-16 -5 7 -9 8 -9 3 0 -6 8 -22 17 -35 13 -20 14 -22 2 -13 -9 7 -20 9 -24 5
-5 -4 -5 1 -2 11 4 9 3 17 -2 17 -4 0 -7 10 -6 23 1 12 -3 28 -9 36 -9 12 -8
13 4 6 12 -7 13 -6 3 6 -14 18 -14 30 0 48 9 12 9 13 0 7 -7 -4 -13 -3 -13 3
0 5 6 12 13 14 9 4 9 6 0 6 -7 1 -13 6 -13 12 0 5 4 8 9 4 5 -3 13 0 17 6 4 8
3 9 -4 5 -6 -3 -16 2 -22 13 -7 14 -7 22 0 26 8 5 7 11 -1 21 -6 7 -15 12 -19
9 -12 -8 2 39 14 47 6 4 0 8 -14 8 -20 0 -22 2 -10 10 13 9 13 10 -1 10 -12 0
-14 8 -11 30 2 18 0 30 -7 30 -6 0 -8 -7 -5 -15 5 -11 1 -14 -12 -9 -16 5 -16
4 -4 -5 12 -9 13 -13 2 -20 -11 -6 -10 -10 3 -15 15 -5 14 -10 -9 -37 -14 -17
-24 -35 -20 -40 3 -5 0 -9 -5 -9 -6 0 -11 5 -11 10 0 6 -4 10 -8 10 -5 0 -9
-7 -9 -15 0 -14 10 -19 29 -16 4 0 5 -6 1 -15 -5 -13 -7 -13 -15 -2 -7 10 -11
10 -22 -5 -12 -16 -14 -16 -20 -1 -9 23 -8 27 8 21 10 -4 13 -1 9 8 -3 8 -9
12 -14 9 -12 -7 -11 10 1 22 7 7 6 11 -4 11 -8 0 -13 -9 -11 -22 1 -13 -4 -33
-11 -46 -13 -23 -13 -23 -8 9 4 20 3 32 -5 32 -6 0 -11 5 -11 11 0 5 5 7 10 4
6 -3 10 -1 10 4 0 6 -5 11 -11 11 -5 0 -8 4 -4 10 3 5 12 7 19 4 8 -3 17 -1
20 4 3 5 -6 8 -20 6 -21 -2 -25 1 -21 17 3 10 1 22 -4 25 -5 3 -9 11 -8 17 0
9 2 9 6 0 2 -7 8 -13 12 -13 9 0 8 31 -3 48 -4 7 -2 12 6 12 10 0 10 2 -1 9
-11 7 -11 9 0 14 10 4 9 6 -3 6 -10 1 -18 -2 -19 -6 -3 -33 -11 -59 -19 -61
-6 -2 -10 -8 -10 -13 0 -6 5 -7 10 -4 6 4 9 1 8 -6 -6 -26 -43 -38 -82 -25
-20 6 -36 15 -36 19 0 5 6 5 13 1 6 -4 5 1 -4 12 -11 13 -14 25 -9 39 5 12 9
14 9 6 1 -8 4 -12 7 -8 12 12 -7 28 -20 18 -9 -8 -13 -7 -13 4 0 8 6 15 13 15
7 0 15 4 18 9 4 5 -3 7 -14 4 -12 -3 -20 0 -20 6 0 7 5 9 13 5 7 -5 7 -1 -3
12 -22 29 -24 30 -17 12 4 -10 3 -18 -1 -18 -4 0 -7 -27 -7 -60 0 -33 -2 -60
-6 -60 -3 0 -5 -12 -4 -27 1 -23 -3 -28 -22 -28 l-23 0 23 18 c18 14 19 16 3
10 -12 -4 -17 -3 -13 4 3 5 0 10 -7 10 -13 0 -15 -34 -3 -54 4 -6 3 -14 -3
-18 -5 -3 -10 -1 -10 6 0 7 -3 9 -6 6 -4 -4 -1 -14 7 -23 11 -14 11 -18 1 -22
-10 -3 -10 -7 -1 -19 7 -8 8 -13 3 -12 -20 3 -35 -2 -29 -10 3 -5 1 -13 -5
-16 -6 -4 -10 -3 -9 2 1 4 -1 16 -6 26 -6 15 -10 16 -17 5 -7 -10 -8 -9 -4 5
3 9 0 17 -6 17 -7 0 -3 7 8 15 10 8 15 15 9 15 -5 0 -10 11 -10 25 0 15 5 23
12 21 6 -3 10 1 8 7 -11 42 -19 57 -33 57 -13 0 -13 -3 2 -19 12 -13 14 -21 6
-26 -6 -4 -9 -1 -8 7 2 7 -2 12 -8 11 -12 -2 -13 46 0 66 7 11 5 13 -7 8 -12
-5 -15 1 -14 26 1 18 6 35 10 38 4 3 -2 17 -13 32 -13 16 -16 28 -10 32 6 4 9
1 8 -6 -2 -7 6 -14 17 -16 15 -3 16 -2 6 5 -11 8 -11 14 0 33 11 22 11 23 -4
10 -18 -15 -24 -2 -7 15 7 7 6 11 -5 11 -9 0 -15 -9 -15 -23 0 -13 -5 -26 -10
-29 -6 -4 -8 -10 -5 -15 3 -4 -2 -13 -10 -20 -12 -10 -15 -9 -16 6 -1 11 -1
25 0 32 3 21 -16 13 -22 -9 -4 -14 -10 -18 -19 -14 -10 6 -11 5 0 -6 16 -17
15 -30 -2 -23 -10 4 -13 -7 -11 -50 1 -30 -2 -53 -6 -50 -19 11 -8 -8 18 -32
18 -17 21 -23 9 -18 -14 5 -17 3 -14 -7 3 -8 1 -22 -4 -33 -7 -13 -6 -21 3
-27 11 -7 11 -9 1 -9 -8 0 -10 -5 -6 -12 5 -8 1 -9 -12 -5 -18 7 -18 6 -1 -7
9 -7 17 -24 17 -37 0 -19 -2 -21 -10 -9 -7 10 -10 11 -10 2 0 -7 7 -15 15 -18
10 -4 13 -13 10 -24 -3 -10 -1 -21 5 -25 6 -3 8 -11 4 -16 -3 -5 -10 -7 -15
-4 -5 4 -9 1 -9 -4 0 -6 5 -11 12 -11 6 0 8 -3 4 -7 -10 -10 -45 38 -39 53 2
7 -1 15 -7 19 -8 5 -8 11 1 21 9 11 9 14 -1 14 -8 0 -10 3 -7 6 3 4 2 16 -4
27 -8 15 -8 18 1 12 9 -5 10 -2 6 13 -13 41 -15 82 -3 82 8 0 8 3 2 8 -12 8
-16 62 -5 62 5 0 6 9 3 20 -3 11 0 27 7 35 10 12 10 15 -1 15 -8 0 -6 6 7 16
10 8 14 13 8 10 -7 -3 -14 0 -17 8 -4 10 0 12 14 9 11 -3 19 0 19 6 0 7 -5 9
-10 6 -6 -3 -10 -3 -11 2 -5 53 -3 70 9 66 6 -3 12 0 12 6 0 6 -4 11 -8 11
-19 0 -10 42 11 50 13 5 16 9 7 10 -13 1 -13 2 0 13 16 12 20 31 9 41 -3 4
-12 -1 -20 -11 -9 -11 -10 -14 -1 -9 6 4 12 3 12 -3 0 -5 -4 -11 -9 -13 -5 -1
-19 -19 -31 -38 -12 -19 -20 -27 -16 -17 3 9 1 17 -4 17 -6 0 -10 -7 -10 -16
0 -9 -8 -22 -17 -29 -19 -14 -30 -61 -11 -49 7 4 8 3 4 -5 -4 -6 -12 -8 -18
-5 -8 5 -9 1 -5 -10 4 -9 3 -14 -2 -11 -5 3 -12 1 -16 -5 -6 -9 8 -14 28 -11
5 1 6 -3 2 -8 -3 -6 -13 -8 -23 -5 -15 5 -15 4 -2 -8 14 -12 14 -15 -1 -30
-16 -15 -17 -14 -15 15 2 18 -2 35 -8 39 -7 5 -7 8 2 8 7 0 10 5 6 12 -4 7 -3
8 5 4 8 -6 11 3 9 29 -2 32 -18 63 -18 36 0 -6 -5 -11 -11 -11 -8 0 -8 4 -2
13 5 6 10 44 11 82 0 39 -2 64 -4 57 -3 -6 -11 -9 -17 -5 -7 4 -6 -1 2 -10 7
-9 9 -17 3 -17 -5 0 -12 -9 -15 -20 -3 -11 0 -20 6 -20 8 0 8 -3 2 -8 -12 -9
-17 -27 -17 -69 0 -18 -5 -33 -11 -33 -6 0 -2 -7 9 -15 18 -14 18 -15 0 -9
-15 6 -17 3 -11 -14 4 -14 2 -22 -5 -22 -6 0 -8 -4 -5 -10 3 -5 1 -10 -5 -10
-7 0 -10 7 -6 15 3 9 0 15 -9 15 -7 0 -17 4 -20 10 -4 6 1 7 11 3 13 -5 16 -2
12 9 -4 9 -1 22 5 29 10 11 9 11 -5 0 -10 -7 -15 -17 -12 -22 3 -5 -2 -6 -11
-2 -9 3 -12 9 -7 12 16 10 10 38 -12 51 -18 12 -19 11 -8 -2 6 -8 12 -26 11
-39 -1 -33 6 -73 16 -89 5 -8 4 -11 -2 -7 -5 3 -10 -1 -10 -9 0 -8 6 -13 13
-10 8 3 11 0 7 -10 -3 -7 -10 -14 -17 -14 -6 0 -5 -4 3 -9 8 -5 11 -16 8 -24
-3 -8 0 -20 6 -26 10 -10 -1 -16 -25 -12 -13 2 -9 -6 9 -20 15 -12 16 -12 8 1
-4 8 -4 12 0 7 13 -11 13 -46 1 -44 -13 3 -15 -26 -1 -35 6 -5 3 -8 -7 -8 -9
0 -17 8 -17 18 0 9 -3 33 -6 52 -4 19 -8 47 -8 63 -1 15 -5 27 -9 27 -4 0 -8
5 -8 11 0 5 4 8 10 4 5 -3 3 7 -5 22 -13 25 -13 29 3 35 15 6 15 7 0 7 -11 1
-15 7 -11 21 3 13 0 20 -8 20 -10 0 -10 3 -1 12 7 7 8 17 2 29 -7 12 -6 20 1
25 8 4 7 9 -2 15 -10 6 -11 9 -1 9 6 0 12 5 12 11 0 5 -6 7 -12 3 -10 -5 -10
-4 -1 6 6 7 9 19 6 28 -5 11 -3 13 8 7 12 -8 12 -6 0 8 -7 9 -9 17 -4 17 6 0
10 15 10 33 0 17 2 44 6 59 4 21 2 26 -9 21 -8 -3 -14 -9 -14 -15 0 -5 -4 -7
-9 -3 -5 3 -13 0 -16 -6 -4 -5 -14 -8 -24 -4 -12 5 -13 4 -4 -6 9 -9 15 -9 26
0 12 9 16 7 20 -8 3 -12 -1 -22 -10 -25 -22 -9 -25 -7 -17 7 5 8 2 8 -9 -2 -9
-7 -18 -10 -18 -5 -4 31 -3 41 10 62 11 19 11 22 0 22 -10 1 -8 4 4 11 9 5 17
15 17 22 0 8 -3 7 -9 -2 -5 -8 -16 -11 -24 -8 -15 6 -37 -10 -37 -27 0 -5 7
-1 15 10 14 18 14 17 4 -8 -14 -31 -21 -34 -38 -15 -6 8 -7 17 -1 23 6 6 5 15
-1 24 -9 13 -10 12 -5 -2 3 -10 1 -20 -5 -23 -5 -4 -7 -11 -4 -16 4 -5 1 -9
-5 -9 -6 0 -8 -4 -5 -10 3 -5 2 -10 -3 -10 -6 0 -10 -6 -9 -12 0 -7 -1 -22 -2
-33 l-2 -20 -8 20 c-5 11 -5 22 -1 25 4 3 4 14 0 25 -8 19 -8 19 -17 -4 -8
-21 -11 -22 -16 -7 -4 10 -10 15 -15 12 -4 -2 -8 6 -8 19 0 19 3 22 13 13 7
-5 10 -14 7 -19 -3 -5 -1 -9 5 -9 5 0 9 9 8 19 0 11 -4 18 -8 15 -8 -5 -21 25
-14 35 2 4 -3 8 -11 8 -8 0 -13 -6 -10 -13 3 -9 -1 -11 -12 -7 -14 6 -15 4 -5
-8 10 -13 10 -16 0 -16 -7 0 -14 9 -14 19 -1 10 2 18 7 18 5 0 8 9 7 19 0 11
-4 18 -8 15 -4 -2 -9 2 -12 8 -2 7 -3 -5 -2 -27 1 -22 -3 -46 -9 -54 -8 -11
-8 -13 2 -7 15 9 16 -6 1 -21 -8 -8 -7 -13 2 -18 8 -6 10 -4 4 5 -5 9 -4 11 4
6 6 -4 9 -12 5 -17 -3 -5 -9 -7 -14 -4 -4 3 -10 -2 -13 -10 -4 -9 -1 -12 7 -9
8 3 12 -3 10 -18 -1 -13 -3 -27 -3 -31 -1 -5 -8 -1 -17 7 -9 10 -14 29 -13 49
2 18 0 38 -4 44 -4 6 -3 15 3 18 7 4 7 11 2 18 -5 7 -8 20 -7 30 2 9 -2 17 -8
17 -8 0 -7 4 1 12 7 7 12 16 12 22 0 5 -7 1 -16 -10 -14 -18 -15 -18 -9 6 5
21 4 22 -5 7 -6 -9 -8 -23 -4 -29 11 -17 12 -68 2 -68 -4 0 -8 7 -8 15 0 9 -6
12 -17 8 -15 -5 -15 -3 2 11 11 10 14 14 6 10 -10 -5 -11 -1 -6 17 7 22 7 23
-11 9 -11 -8 -9 -2 6 14 14 16 20 26 13 22 -6 -3 -15 -1 -19 5 -4 8 -3 9 4 5
7 -4 12 -3 12 3 0 6 8 8 18 5 15 -5 15 -4 1 5 -18 11 -62 3 -53 -10 7 -12 -29
2 -38 14 -9 15 2 38 16 30 7 -4 7 -2 -1 8 -10 12 -10 18 0 29 9 10 9 11 0 6
-12 -7 -18 5 -14 27 1 5 -3 6 -9 2 -7 -4 -7 -12 0 -25 7 -13 6 -21 -3 -29 -11
-8 -13 -6 -13 11 1 12 -6 22 -17 24 -9 1 -15 -2 -11 -7 3 -5 10 -7 15 -4 5 4
9 -1 9 -9 0 -9 -4 -16 -10 -16 -5 0 -7 -7 -4 -15 3 -8 3 -19 -1 -25 -9 -15
-38 9 -31 26 3 8 -1 20 -9 28 -11 11 -12 15 -2 19 9 3 8 8 -3 22 -8 10 -10 16
-4 12 7 -4 14 0 18 8 3 8 1 17 -4 20 -10 6 -2 65 12 82 11 14 1 36 -12 28 -5
-3 -6 -13 -3 -22 4 -11 3 -14 -6 -9 -14 9 -11 47 4 58 6 5 6 8 -2 8 -6 0 -15
-6 -20 -12z m22 -146 c-3 -3 -11 0 -18 7 -9 10 -8 11 6 5 10 -3 15 -9 12 -12z
m35 -152 c0 -5 -2 -10 -4 -10 -3 0 -8 5 -11 10 -3 6 -1 10 4 10 6 0 11 -4 11
-10z m70 -4 c0 -3 -4 -8 -10 -11 -5 -3 -10 -1 -10 4 0 6 5 11 10 11 6 0 10 -2
10 -4z m30 -10 c0 -2 -7 -7 -16 -10 -8 -3 -12 -2 -9 4 6 10 25 14 25 6z m-245
-86 c3 -5 1 -10 -4 -10 -6 0 -11 5 -11 10 0 6 2 10 4 10 3 0 8 -4 11 -10z
m508 -43 c3 -8 1 -20 -4 -28 -6 -10 -9 -7 -9 14 0 29 5 35 13 14z m130 -12
c-3 -9 -8 -14 -10 -11 -3 3 -2 9 2 15 9 16 15 13 8 -4z m-609 -3 c3 -5 -1 -9
-9 -9 -8 0 -15 4 -15 9 0 4 4 8 9 8 6 0 12 -4 15 -8z m580 -77 c-4 -8 -10 -15
-15 -15 -5 0 -4 -11 1 -25 5 -14 6 -24 2 -24 -19 3 -26 -2 -13 -10 12 -8 12
-12 2 -25 -10 -12 -10 -16 -2 -16 7 0 9 -4 6 -10 -3 -5 -8 -20 -10 -31 -3 -12
-7 -24 -11 -28 -4 -3 -4 2 -1 12 4 10 1 17 -6 18 -9 0 -9 2 1 6 6 2 12 11 12
19 0 8 -6 14 -12 14 -8 0 -9 3 -3 8 15 11 17 32 3 32 -8 0 -6 5 4 11 13 7 16
17 11 39 -4 21 -2 30 7 30 8 0 10 3 7 6 -4 4 -14 1 -22 -6 -13 -11 -16 -11
-13 1 5 21 20 29 40 18 10 -5 15 -16 12 -24z m-651 1 c3 -8 0 -16 -6 -19 -7
-3 -13 3 -13 14 0 22 12 25 19 5z m384 -45 c1 -14 -1 -19 -4 -11 -3 8 -10 20
-14 26 -5 6 -4 11 4 11 7 0 13 -12 14 -26z m233 -1 c0 -5 -4 -10 -10 -10 -5 0
-10 5 -10 10 0 6 5 10 10 10 6 0 10 -4 10 -10z m-595 -100 c10 -11 16 -20 13
-20 -3 0 -13 9 -23 20 -10 11 -16 20 -13 20 3 0 13 -9 23 -20z m1005 -50 c0
-5 -5 -10 -11 -10 -5 0 -7 5 -4 10 3 6 8 10 11 10 2 0 4 -4 4 -10z m-392 -12
c-2 -7 3 -12 11 -10 11 2 12 0 4 -10 -6 -7 -9 -53 -8 -105 2 -51 -1 -91 -5
-88 -5 3 -7 17 -4 31 3 15 1 23 -5 20 -5 -4 -13 -1 -17 5 -4 7 -3 9 2 6 6 -3
10 21 10 58 0 42 -4 62 -10 58 -6 -3 -6 0 1 7 6 7 9 19 6 26 -3 8 0 14 6 14 6
0 10 -6 9 -12z m428 -22 c0 -13 -5 -24 -11 -23 -13 3 -13 -25 -1 -42 9 -12 7
-12 -13 -2 -13 7 -20 16 -15 20 13 9 16 39 4 46 -6 4 -10 3 -9 -2 1 -4 -3 -21
-9 -36 -15 -36 -15 -40 1 -31 6 4 9 4 5 0 -15 -17 -22 -9 -23 25 -2 36 24 67
45 54 5 -3 11 -1 15 5 10 16 13 12 11 -14z m-271 -36 c3 -5 1 -10 -4 -10 -6 0
-11 5 -11 10 0 6 2 10 4 10 3 0 8 -4 11 -10z m-691 -12 c-3 -4 -9 -8 -15 -8
-5 0 -9 4 -9 8 0 5 7 9 15 9 8 0 12 -4 9 -9z m51 -18 c3 -5 1 -10 -4 -10 -6 0
-11 5 -11 10 0 6 2 10 4 10 3 0 8 -4 11 -10z m-145 -24 c0 -2 -7 -9 -15 -16
-13 -11 -14 -10 -9 4 5 14 24 23 24 12z m1351 -88 c6 -10 12 -8 22 6 11 15 16
16 22 6 5 -8 4 -11 -3 -6 -8 4 -10 -3 -7 -24 2 -16 -1 -33 -7 -36 -6 -4 -8 -3
-5 2 6 11 -9 41 -17 33 -3 -2 -7 -17 -10 -33 -6 -33 -13 -42 -23 -32 -4 4 -3
10 2 14 6 4 11 15 13 24 2 13 -2 16 -15 12 -13 -4 -11 -1 3 8 20 12 20 14 6
28 -14 13 -15 12 -9 -3 3 -9 2 -17 -3 -17 -6 0 -10 7 -10 16 0 9 -5 12 -12 8
-6 -4 -8 -3 -4 4 8 14 47 7 57 -10z m579 3 c0 -13 -26 -32 -33 -24 -4 3 -7 -1
-7 -11 0 -11 5 -15 13 -10 9 5 9 4 0 -6 -10 -11 -9 -16 5 -26 14 -10 15 -15 4
-26 -11 -11 -12 -10 -7 3 4 10 0 19 -10 23 -9 3 -13 10 -10 16 3 5 -2 10 -12
10 -14 0 -15 2 -5 9 11 6 10 10 -4 15 -14 5 -15 9 -5 19 9 9 14 9 20 -1 6 -10
10 -10 21 3 14 16 30 20 30 6z m-703 -43 c-3 -8 -6 -5 -6 6 -1 11 2 17 5 13 3
-3 4 -12 1 -19z m-1028 -2 c9 -10 8 -15 -2 -19 -8 -3 -13 3 -13 14 0 23 0 23
15 5z m444 -5 c2 -10 0 -25 -5 -32 -8 -11 -9 -11 -5 1 2 8 0 23 -5 33 -5 10
-5 17 0 17 6 0 12 -9 15 -19z m-476 -5 c-3 -7 0 -19 6 -25 9 -9 8 -11 -5 -6
-10 4 -18 9 -18 10 0 9 13 35 17 35 3 0 3 -6 0 -14z m1703 -22 c0 -8 6 -14 13
-15 9 0 9 -2 -1 -6 -10 -4 -10 -8 0 -21 7 -10 1 -7 -13 6 -14 12 -28 20 -30
18 -3 -3 -5 3 -5 13 0 9 8 18 18 18 10 1 18 -5 18 -13z m-1640 -2 c0 -4 -10
-9 -22 -9 -18 -2 -20 0 -8 7 18 12 30 13 30 2z m114 -13 c-2 -4 -23 -6 -46 -6
-29 0 -36 2 -23 7 24 8 75 8 69 -1z m1130 -25 c3 -8 2 -12 -4 -9 -6 3 -10 10
-10 16 0 14 7 11 14 -7z m572 -39 c1 -8 -2 -15 -7 -15 -5 0 -9 10 -9 22 0 23
12 17 16 -7z m120 13 c3 -4 -1 -5 -10 -4 -8 1 -18 5 -22 8 -3 4 1 5 10 4 8 -1
18 -5 22 -8z m-92 -36 c3 -5 -1 -9 -9 -9 -8 0 -12 4 -9 9 3 4 7 8 9 8 2 0 6
-4 9 -8z m-1084 -78 c0 -8 -19 -13 -24 -6 -3 5 1 9 9 9 8 0 15 -2 15 -3z m710
-35 c0 -11 -4 -18 -10 -14 -5 3 -7 12 -3 20 7 21 13 19 13 -6z m630 -29 c0 -5
-5 -10 -11 -10 -5 0 -7 5 -4 10 3 6 8 10 11 10 2 0 4 -4 4 -10z m-656 -18 c3
-5 -1 -9 -9 -9 -8 0 -12 4 -9 9 3 4 7 8 9 8 2 0 6 -4 9 -8z m561 -63 c-3 -4 1
-9 7 -12 7 -3 3 -4 -9 -4 -17 1 -19 4 -11 14 10 12 4 17 -14 14 -4 0 -4 7 -1
16 6 14 7 14 19 -2 7 -10 11 -21 9 -26z m-2079 -21 c4 -6 2 -8 -4 -4 -6 3 -12
-1 -14 -9 -2 -13 -5 -13 -14 3 -10 15 -8 18 7 19 10 1 22 -3 25 -9z m2084 -12
c0 -3 -4 -8 -10 -11 -5 -3 -10 -1 -10 4 0 6 5 11 10 11 6 0 10 -2 10 -4z
m-2078 -42 c-15 -12 -29 -18 -30 -13 -2 5 -8 7 -13 4 -5 -4 -6 1 -2 10 4 12 8
13 13 5 4 -7 13 -9 19 -6 6 4 9 11 7 15 -3 3 4 7 15 7 16 0 15 -3 -9 -22z
m-59 1 c-3 -9 -8 -14 -10 -11 -3 3 -2 9 2 15 9 16 15 13 8 -4z m2147 11 c0 -2
-8 -10 -17 -17 -16 -13 -17 -12 -4 4 13 16 21 21 21 13z m240 -40 c0 -3 -4 -8
-10 -11 -5 -3 -10 -1 -10 4 0 6 5 11 10 11 6 0 10 -2 10 -4z m-1864 -15 c-3
-4 16 -8 42 -9 63 -1 88 -7 84 -22 -1 -6 2 -9 8 -5 6 3 8 10 5 15 -6 10 76 7
93 -3 6 -5 12 -4 12 2 0 5 8 9 18 8 10 0 19 -7 19 -13 0 -9 -13 -12 -36 -10
-20 2 -47 -1 -61 -7 -14 -5 -52 -10 -85 -10 -48 -1 -60 2 -59 14 1 9 -8 15
-20 16 -12 1 -15 -1 -8 -4 16 -6 16 -23 -1 -23 -15 0 -39 44 -30 54 10 9 25 7
19 -3z m-48 -46 c-3 -3 -9 2 -12 12 -6 14 -5 15 5 6 7 -7 10 -15 7 -18z m-174
-1 c3 -8 2 -12 -4 -9 -6 3 -10 10 -10 16 0 14 7 11 14 -7z m2136 -450 c0 -8
-19 -13 -24 -6 -3 5 1 9 9 9 8 0 15 -2 15 -3z m-1450 -50 c0 -2 -12 -4 -26 -4
-14 0 -23 4 -20 9 6 8 46 4 46 -5z m1035 -114 c-3 -5 -12 -10 -18 -10 -7 0 -6
4 3 10 19 12 23 12 15 0z m275 -4 c0 -2 -7 -7 -16 -10 -8 -3 -12 -2 -9 4 6 10
25 14 25 6z m-687 -21 c-3 -9 -8 -14 -10 -11 -3 3 -2 9 2 15 9 16 15 13 8 -4z
m388 -28 c-10 -9 -11 -8 -5 6 3 10 9 15 12 12 3 -3 0 -11 -7 -18z m204 -37
c-3 -5 -12 -10 -18 -10 -7 0 -6 4 3 10 19 12 23 12 15 0z m26 -9 c-14 -26 -58
-53 -66 -41 -4 6 -1 9 7 8 7 -2 12 3 10 10 -1 8 2 11 9 7 6 -4 17 2 25 14 19
26 28 28 15 2z m-841 -1 c0 -5 -4 -10 -10 -10 -5 0 -10 5 -10 10 0 6 5 10 10
10 6 0 10 -4 10 -10z"/>
<path d="M2090 2261 c0 -6 4 -13 10 -16 6 -3 7 1 4 9 -7 18 -14 21 -14 7z"/>
<path d="M916 1782 c-2 -4 4 -8 14 -8 10 0 16 4 14 8 -3 4 -9 8 -14 8 -5 0
-11 -4 -14 -8z"/>
<path d="M281 3193 c-1 -6 -4 -20 -7 -30 -5 -17 -5 -17 6 0 6 10 9 23 6 30 -3
9 -5 9 -5 0z"/>
<path d="M573 3069 c-2 -23 3 -25 10 -4 4 8 3 16 -1 19 -4 3 -9 -4 -9 -15z"/>
<path d="M396 3067 c3 -10 9 -15 12 -12 3 3 0 11 -7 18 -10 9 -11 8 -5 -6z"/>
<path d="M253 3029 c-2 -23 3 -25 10 -4 4 8 3 16 -1 19 -4 3 -9 -4 -9 -15z"/>
<path d="M400 3031 c0 -5 5 -13 10 -16 6 -3 10 -2 10 4 0 5 -4 13 -10 16 -5 3
-10 2 -10 -4z"/>
<path d="M500 3021 c-8 -6 -18 -7 -24 -4 -5 3 -6 1 -2 -5 5 -8 13 -9 25 -2 10
5 21 6 25 3 3 -3 6 -1 6 5 0 14 -10 15 -30 3z"/>
<path d="M548 3023 c7 -3 16 -2 19 1 4 3 -2 6 -13 5 -11 0 -14 -3 -6 -6z"/>
<path d="M855 2963 c3 -3 0 -12 -5 -18 -7 -9 -6 -14 3 -18 14 -5 17 28 4 38
-4 3 -5 2 -2 -2z"/>
<path d="M250 2940 c-9 -6 -10 -10 -3 -10 6 0 15 5 18 10 8 12 4 12 -15 0z"/>
<path d="M835 2910 c3 -5 8 -10 11 -10 2 0 4 5 4 10 0 6 -5 10 -11 10 -5 0 -7
-4 -4 -10z"/>
<path d="M910 2885 c0 -7 30 -13 34 -7 3 4 -4 9 -15 9 -10 1 -19 0 -19 -2z"/>
<path d="M180 2844 c0 -13 18 -39 24 -34 2 3 -2 14 -10 24 -8 11 -14 16 -14
10z"/>
<path d="M1076 2842 c-3 -5 1 -9 9 -9 8 0 12 4 9 9 -3 4 -7 8 -9 8 -2 0 -6 -4
-9 -8z"/>
<path d="M156 2813 c-6 -14 -5 -15 5 -6 7 7 10 15 7 18 -3 3 -9 -2 -12 -12z"/>
<path d="M1237 2795 c-4 -8 -3 -16 1 -19 4 -3 9 4 9 15 2 23 -3 25 -10 4z"/>
<path d="M1080 2794 c0 -5 7 -19 15 -30 15 -19 15 -19 8 1 -6 17 -4 18 8 8 13
-10 16 -10 16 1 0 8 -7 13 -16 11 -9 -1 -19 3 -23 9 -5 7 -8 7 -8 0z"/>
<path d="M1130 2740 c0 -5 5 -10 10 -10 6 0 10 5 10 10 0 6 -4 10 -10 10 -5 0
-10 -4 -10 -10z"/>
<path d="M1165 2720 c-4 -6 -11 -7 -17 -4 -7 4 -8 2 -4 -5 6 -9 11 -9 22 0 14
11 18 19 10 19 -3 0 -8 -5 -11 -10z"/>
<path d="M1079 2709 c-8 -5 -8 -9 0 -13 6 -4 11 -3 11 2 0 6 9 8 20 5 11 -3
17 -9 14 -14 -3 -5 -10 -7 -15 -4 -5 4 -17 1 -26 -4 -11 -6 -13 -11 -5 -11 7
0 10 -4 7 -10 -3 -5 -1 -10 5 -10 7 0 10 -7 7 -15 -4 -8 -1 -17 5 -21 6 -4 8
-3 5 3 -4 6 2 18 12 27 15 13 18 29 12 66 -1 8 -40 7 -52 -1z m45 -50 c-8 -13
-21 -11 -27 5 -4 10 0 12 14 9 10 -3 16 -9 13 -14z"/>
<path d="M1310 2706 c0 -2 7 -7 16 -10 8 -3 12 -2 9 4 -6 10 -25 14 -25 6z"/>
<path d="M1200 2681 c0 -6 4 -13 10 -16 6 -3 7 1 4 9 -7 18 -14 21 -14 7z"/>
<path d="M1318 2643 c7 -3 16 -2 19 1 4 3 -2 6 -13 5 -11 0 -14 -3 -6 -6z"/>
<path d="M1209 2608 c11 -15 41 -15 41 -1 0 3 -6 3 -14 0 -7 -3 -20 0 -27 6
-11 10 -11 9 0 -5z"/>
<path d="M262 2515 c11 -20 23 -34 25 -31 5 5 -35 66 -42 66 -3 0 5 -16 17
-35z"/>
<path d="M1677 2527 c-3 -8 -2 -20 3 -26 5 -9 8 -4 8 13 0 29 -3 32 -11 13z"/>
<path d="M295 2520 c3 -5 8 -10 11 -10 2 0 4 5 4 10 0 6 -5 10 -11 10 -5 0 -7
-4 -4 -10z"/>
<path d="M1347 2477 c-3 -8 3 -14 16 -15 12 0 17 2 12 6 -6 4 -13 11 -16 15
-4 4 -9 2 -12 -6z"/>
<path d="M2243 2458 c-12 -21 -12 -37 0 -45 7 -3 9 -3 5 2 -4 4 0 14 10 22 16
12 15 13 -3 6 -18 -6 -18 -5 -6 10 7 9 11 17 8 17 -3 0 -9 -6 -14 -12z"/>
<path d="M1362 2438 c-17 -17 -15 -28 4 -28 10 0 14 6 11 14 -3 8 -1 17 6 20
7 2 7 5 2 5 -6 1 -16 -4 -23 -11z"/>
<path d="M936 2413 c-6 -14 -5 -15 5 -6 7 7 10 15 7 18 -3 3 -9 -2 -12 -12z"/>
<path d="M1435 2401 c-6 -11 13 -26 22 -17 4 3 1 6 -6 6 -7 0 -9 5 -6 10 3 6
4 10 1 10 -3 0 -7 -4 -11 -9z"/>
<path d="M1606 2383 c-6 -14 -5 -15 5 -6 7 7 10 15 7 18 -3 3 -9 -2 -12 -12z"/>
<path d="M2070 2360 c0 -5 5 -10 11 -10 5 0 7 5 4 10 -3 6 -8 10 -11 10 -2 0
-4 -4 -4 -10z"/>
<path d="M1776 2345 c-3 -8 -3 -15 0 -15 3 0 12 7 20 15 13 13 13 15 1 15 -8
0 -17 -7 -21 -15z"/>
<path d="M1747 2319 c7 -7 15 -10 18 -7 3 3 -2 9 -12 12 -14 6 -15 5 -6 -5z"/>
<path d="M1863 2315 c0 -8 4 -12 9 -9 5 3 6 10 3 15 -9 13 -12 11 -12 -6z"/>
<path d="M1385 2310 c-3 -5 -4 -14 0 -19 3 -5 1 -12 -5 -16 -14 -9 11 -44 27
-38 8 3 11 8 9 11 -3 3 -1 11 6 19 9 11 8 13 -3 11 -8 -2 -13 4 -11 14 3 19
-14 33 -23 18z m19 -51 c-3 -5 -10 -7 -15 -3 -5 3 -7 10 -3 15 3 5 10 7 15 3
5 -3 7 -10 3 -15z"/>
<path d="M350 2290 c0 -5 5 -10 10 -10 6 0 10 5 10 10 0 6 -4 10 -10 10 -5 0
-10 -4 -10 -10z"/>
<path d="M2365 2260 c-3 -6 1 -7 9 -4 18 7 21 14 7 14 -6 0 -13 -4 -16 -10z"/>
<path d="M2516 2207 c3 -10 9 -15 12 -12 3 3 0 11 -7 18 -10 9 -11 8 -5 -6z"/>
<path d="M1190 2200 c0 -5 5 -10 11 -10 5 0 7 5 4 10 -3 6 -8 10 -11 10 -2 0
-4 -4 -4 -10z"/>
<path d="M2030 2206 c0 -2 8 -10 18 -17 15 -13 16 -12 3 4 -13 16 -21 21 -21
13z"/>
<path d="M2493 2192 c0 -12 5 -22 9 -22 11 0 10 12 -2 30 -7 12 -9 10 -7 -8z"/>
<path d="M1195 2170 c-3 -5 -5 -10 -3 -11 33 -8 38 -7 27 7 -14 17 -16 17 -24
4z"/>
<path d="M2041 2131 c-10 -6 -9 -10 3 -14 8 -3 18 -2 21 3 8 13 -9 20 -24 11z"/>
<path d="M340 2100 c8 -5 20 -10 25 -10 6 0 3 5 -5 10 -8 5 -19 10 -25 10 -5
0 -3 -5 5 -10z"/>
<path d="M315 2049 c-9 -14 -2 -20 14 -10 8 6 9 11 3 15 -6 3 -14 1 -17 -5z"/>
<path d="M717 2049 c7 -7 15 -10 18 -7 3 3 -2 9 -12 12 -14 6 -15 5 -6 -5z"/>
<path d="M405 1991 c3 -5 -3 -12 -12 -14 -11 -3 -8 -5 10 -6 29 -1 37 13 11
23 -8 3 -12 2 -9 -3z"/>
<path d="M2691 1974 c0 -11 3 -14 6 -6 3 7 2 16 -1 19 -3 4 -6 -2 -5 -13z"/>
<path d="M2676 1933 c-6 -14 -5 -15 5 -6 7 7 10 15 7 18 -3 3 -9 -2 -12 -12z"/>
<path d="M761 1817 c-8 -10 -7 -14 2 -14 8 0 14 6 14 14 0 7 -1 13 -2 13 -2 0
-8 -6 -14 -13z"/>
<path d="M2873 1818 c1 -7 -4 -12 -11 -10 -8 1 -11 -2 -7 -8 5 -8 11 -8 21 1
7 6 11 15 8 20 -8 13 -14 11 -11 -3z"/>
<path d="M2894 1792 c3 -6 -2 -13 -11 -15 -16 -4 -16 -5 -1 -6 21 -1 32 15 17
25 -7 4 -9 3 -5 -4z"/>
<path d="M521 1744 c0 -11 3 -14 6 -6 3 7 2 16 -1 19 -3 4 -6 -2 -5 -13z"/>
<path d="M540 1740 c0 -6 7 -10 15 -10 8 0 15 2 15 4 0 2 -7 6 -15 10 -8 3
-15 1 -15 -4z"/>
<path d="M2875 1710 c-3 -6 1 -7 9 -4 18 7 21 14 7 14 -6 0 -13 -4 -16 -10z"/>
<path d="M3006 1701 c-3 -5 1 -11 9 -14 9 -4 12 -1 8 9 -6 16 -10 17 -17 5z"/>
<path d="M660 1680 c0 -5 5 -10 11 -10 5 0 7 5 4 10 -3 6 -8 10 -11 10 -2 0
-4 -4 -4 -10z"/>
<path d="M2730 1666 c0 -2 7 -7 16 -10 8 -3 12 -2 9 4 -6 10 -25 14 -25 6z"/>
<path d="M3027 1636 c-4 -10 -1 -13 8 -9 8 3 12 9 9 14 -7 12 -11 11 -17 -5z"/>
<path d="M790 1631 c0 -6 4 -13 10 -16 6 -3 7 1 4 9 -7 18 -14 21 -14 7z"/>
<path d="M816 1627 c3 -10 9 -15 12 -12 3 3 0 11 -7 18 -10 9 -11 8 -5 -6z"/>
<path d="M2725 1601 c-6 -10 33 -36 42 -28 2 3 -5 8 -16 12 -12 3 -19 11 -16
16 4 5 4 9 1 9 -3 0 -7 -4 -11 -9z"/>
<path d="M2879 1593 c-13 -16 -12 -17 4 -4 16 13 21 21 13 21 -2 0 -10 -8 -17
-17z"/>
<path d="M847 1559 c7 -7 15 -10 18 -7 3 3 -2 9 -12 12 -14 6 -15 5 -6 -5z"/>
<path d="M890 1545 c0 -8 2 -15 4 -15 2 0 6 7 10 15 3 8 1 15 -4 15 -6 0 -10
-7 -10 -15z"/>
<path d="M2729 1548 c-5 -18 -6 -38 -1 -34 7 8 12 36 6 36 -2 0 -4 -1 -5 -2z"/>
<path d="M953 1505 c0 -8 4 -12 9 -9 5 3 6 10 3 15 -9 13 -12 11 -12 -6z"/>
<path d="M828 1473 c7 -3 16 -2 19 1 4 3 -2 6 -13 5 -11 0 -14 -3 -6 -6z"/>
<path d="M970 1465 c0 -5 5 -17 10 -25 5 -8 10 -10 10 -5 0 6 -5 17 -10 25 -5
8 -10 11 -10 5z"/>
<path d="M1055 1450 c-3 -6 1 -7 9 -4 18 7 21 14 7 14 -6 0 -13 -4 -16 -10z"/>
<path d="M2679 1388 c-6 -21 -5 -37 2 -32 5 3 7 9 4 14 -3 4 1 11 7 13 10 4
10 6 1 6 -7 1 -13 0 -14 -1z"/>
<path d="M2850 1380 c0 -5 5 -10 11 -10 5 0 7 5 4 10 -3 6 -8 10 -11 10 -2 0
-4 -4 -4 -10z"/>
<path d="M1028 1343 c6 -2 18 -2 25 0 6 3 1 5 -13 5 -14 0 -19 -2 -12 -5z"/>
<path d="M1081 1334 c0 -11 3 -14 6 -6 3 7 2 16 -1 19 -3 4 -6 -2 -5 -13z"/>
<path d="M2600 1301 c0 -6 4 -13 10 -16 6 -3 7 1 4 9 -7 18 -14 21 -14 7z"/>
<path d="M2515 1241 c-3 -5 -2 -12 3 -15 5 -3 9 1 9 9 0 17 -3 19 -12 6z"/>
<path d="M2515 1200 c3 -5 8 -10 11 -10 2 0 4 5 4 10 0 6 -5 10 -11 10 -5 0
-7 -4 -4 -10z"/>
<path d="M2440 1150 c-9 -6 -10 -10 -3 -10 6 0 15 5 18 10 8 12 4 12 -15 0z"/>
<path d="M2229 1135 c-1 -3 -2 -8 -3 -12 -1 -5 -5 -15 -11 -23 -7 -12 -6 -13
7 -3 8 7 17 11 20 8 3 -3 11 1 17 9 8 10 9 16 1 21 -6 4 -9 3 -8 -2 2 -4 -1
-9 -7 -10 -5 -2 -9 2 -7 7 1 6 0 10 -3 10 -3 0 -6 -2 -6 -5z"/>
<path d="M1453 1093 c-1 -19 1 -22 8 -12 11 17 12 39 2 39 -5 0 -9 -12 -10
-27z"/>
<path d="M1370 1080 c0 -5 5 -10 11 -10 5 0 7 5 4 10 -3 6 -8 10 -11 10 -2 0
-4 -4 -4 -10z"/>
<path d="M1594 1075 c3 -23 12 -26 13 -5 1 11 -2 20 -7 20 -4 0 -7 -7 -6 -15z"/>
<path d="M2298 1083 c10 -4 8 -11 -9 -29 -12 -13 -17 -24 -11 -24 7 0 12 4 12
9 0 6 9 8 19 6 15 -3 18 0 14 13 -6 15 -5 16 13 2 19 -14 19 -14 0 8 -11 12
-26 22 -35 21 -11 0 -12 -2 -3 -6z"/>
<path d="M1853 1055 c0 -8 4 -12 9 -9 5 3 6 10 3 15 -9 13 -12 11 -12 -6z"/>
<path d="M1895 1061 c-3 -6 4 -9 15 -8 11 1 20 5 20 9 0 11 -28 10 -35 -1z"/>
<path d="M1980 1040 c-9 -6 -10 -10 -3 -10 6 0 15 5 18 10 8 12 4 12 -15 0z"/>
<path d="M2228 1038 c5 -5 16 -8 23 -6 8 3 3 7 -10 11 -17 4 -21 3 -13 -5z"/>
<path d="M2150 1020 c0 -5 5 -10 11 -10 5 0 7 5 4 10 -3 6 -8 10 -11 10 -2 0
-4 -4 -4 -10z"/>
<path d="M2426 1022 c-3 -5 1 -9 9 -9 8 0 12 4 9 9 -3 4 -7 8 -9 8 -2 0 -6 -4
-9 -8z"/>
<path d="M2230 999 c0 -5 5 -7 10 -4 6 3 10 8 10 11 0 2 -4 4 -10 4 -5 0 -10
-5 -10 -11z"/>
<path d="M2550 1001 c0 -6 4 -13 10 -16 6 -3 7 1 4 9 -7 18 -14 21 -14 7z"/>
<path d="M2063 985 c0 -8 4 -12 9 -9 5 3 6 10 3 15 -9 13 -12 11 -12 -6z"/>
<path d="M2425 950 c-3 -5 0 -7 9 -4 11 4 14 0 11 -15 -2 -12 1 -21 6 -21 6 0
7 -5 4 -10 -5 -8 -11 -7 -21 1 -12 10 -12 14 -2 21 10 8 10 9 -1 6 -8 -2 -15
-12 -17 -21 -1 -9 1 -15 6 -12 4 3 13 -2 20 -10 10 -12 10 -18 1 -29 -10 -12
-9 -14 5 -12 14 2 19 14 21 51 2 31 -1 52 -9 57 -17 10 -26 10 -33 -2z"/>
<path d="M2525 931 c-3 -5 -2 -12 3 -15 5 -3 9 1 9 9 0 17 -3 19 -12 6z"/>
<path d="M2445 819 c-3 -4 2 -6 10 -5 21 3 28 13 10 13 -9 0 -18 -4 -20 -8z"/>
</g>
</svg>
